<svg width="39" height="38" viewBox="0 0 39 38" fill="none" xmlns="http://www.w3.org/2000/svg">
<path fill-rule="evenodd" clip-rule="evenodd" d="M0.6875 15.0625C0.6875 20.7886 3.97886 25.7361 8.75 28.0703V25.0378C5.53869 22.9575 3.375 19.3007 3.375 15.0625C3.375 8.44811 8.64491 3.25 14.9424 3.25C20.2846 3.25 24.8873 6.99068 26.1608 12.1634L26.1648 12.1618C26.3447 12.8795 26.4594 13.6236 26.5021 14.3872C27.3393 13.9773 28.2709 13.75 29.2412 13.75C32.6759 13.75 35.625 16.5976 35.625 20.3125C35.625 22.5575 34.5479 24.4858 32.9375 25.6603V28.7052C36.1051 27.272 38.3125 24.0533 38.3125 20.3125C38.3125 15.2384 34.2512 11.125 29.2412 11.125C29.0479 11.125 28.8561 11.1311 28.6658 11.1432C26.9794 5.07407 21.4739 0.625 14.9424 0.625C7.06963 0.625 0.6875 7.08889 0.6875 15.0625ZM23.1536 24.5159C23.4354 24.6749 23.8768 24.6055 24.1025 24.2235C24.2261 24.0143 24.385 23.5799 24.5 22.8726C24.5459 22.5906 24.5805 22.2932 24.6055 21.9878C23.8207 22.5302 23.2261 23.0798 22.9383 23.5668C22.7126 23.9488 22.8718 24.357 23.1536 24.5159ZM24.5987 18.8973C25.9994 18.1308 27.1852 17.6929 27.1852 17.6929C27.1852 17.6929 27.3403 18.9255 27.3464 20.4784C27.353 22.1796 27.1808 24.2653 26.4297 25.5364C25.4852 27.1348 23.417 27.6958 21.8102 26.7894C20.2035 25.883 19.6666 23.8524 20.6111 22.254C21.4353 20.8591 23.1344 19.6986 24.5987 18.8973ZM14.281 25.8516C14.5628 26.0106 15.0042 25.9412 15.2299 25.5592C15.3535 25.3501 15.5124 24.9156 15.6275 24.2083C15.6733 23.9263 15.7079 23.6289 15.733 23.3235C14.9481 23.8659 14.3535 24.4156 14.0658 24.9025C13.8401 25.2845 13.9993 25.6927 14.281 25.8516ZM15.7261 20.233C17.1268 19.4665 18.3126 19.0287 18.3126 19.0287C18.3126 19.0287 18.4678 20.2612 18.4738 21.8141C18.4805 23.5153 18.3082 25.601 17.5571 26.8721C16.6126 28.4706 14.5444 29.0316 12.9376 28.1252C11.3309 27.2187 10.794 25.1881 11.7385 23.5897C12.5627 22.1948 14.2618 21.0343 15.7261 20.233ZM27.1316 32.2731C26.9059 32.6551 26.4645 32.7245 26.1827 32.5655C25.9009 32.4066 25.7417 31.9984 25.9674 31.6164C26.2552 31.1295 26.8498 30.5798 27.6346 30.0374C27.6096 30.3428 27.575 30.6402 27.5291 30.9222C27.4141 31.6295 27.2552 32.0639 27.1316 32.2731ZM30.2143 25.7425C30.2143 25.7425 29.0285 26.1804 27.6278 26.9469C26.1635 27.7482 24.4644 28.9087 23.6402 30.3036C22.6957 31.902 23.2325 33.9326 24.8393 34.839C26.4461 35.7455 28.5143 35.1844 29.4588 33.586C30.2099 32.3149 30.3821 30.2292 30.3755 28.528C30.3694 26.9751 30.2143 25.7425 30.2143 25.7425ZM17.155 34.668C17.4367 34.827 17.8781 34.7576 18.1038 34.3756C18.2274 34.1664 18.3863 33.732 18.5014 33.0247C18.5473 32.7427 18.5819 32.4453 18.6069 32.1399C17.8221 32.6822 17.2274 33.2319 16.9397 33.7189C16.714 34.1008 16.8732 34.509 17.155 34.668ZM18.6001 29.0493C20.0007 28.2829 21.1866 27.845 21.1866 27.845C21.1866 27.845 21.3417 29.0776 21.3478 30.6305C21.3544 32.3317 21.1821 34.4174 20.4311 35.6884C19.4865 37.2869 17.4183 37.8479 15.8116 36.9415C14.2048 36.0351 13.6679 34.0045 14.6125 32.406C15.4367 31.0112 17.1357 29.8507 18.6001 29.0493Z" fill="white"/>
</svg>
