<svg width="40" height="38" viewBox="0 0 40 38" fill="none" xmlns="http://www.w3.org/2000/svg">
<path fill-rule="evenodd" clip-rule="evenodd" d="M22.2496 0.625V3.82111H24.9996V0.625H22.2496ZM39.25 14.2277H35.9017L35.9017 16.8527H39.25V14.2277ZM33.5694 8.54398L36.4691 6.94592L37.8441 9.21924L34.9444 10.8173L33.5694 8.54398ZM30.2466 1.96697L28.5724 4.73488L30.954 6.04738L32.6282 3.27947L30.2466 1.96697ZM16.2953 6.04738L14.6211 3.27947L17.0027 1.96697L18.6768 4.73488L16.2953 6.04738ZM39.25 27.8594C39.25 23.8871 36.788 20.4833 33.2904 19.0581C33.7239 17.9644 33.9612 16.7786 33.9612 15.54C33.9612 10.0484 29.2973 5.59654 23.5442 5.59654C20.4938 5.59654 17.7496 6.84811 15.8445 8.84264C15.6267 8.833 15.4077 8.82812 15.1875 8.82812C7.21389 8.82812 0.75 15.2186 0.75 23.1016C0.75 30.9846 7.21389 37.375 15.1875 37.375C15.278 37.375 15.3684 37.3742 15.4585 37.3725V37.375H29.6179L29.625 37.375L29.632 37.375H29.9569V37.3694C35.119 37.1965 39.25 33.0049 39.25 27.8594ZM31.2112 15.54C31.2112 16.552 30.996 17.516 30.6069 18.3927C30.284 18.3603 29.9565 18.3438 29.625 18.3438C29.3523 18.3438 29.0823 18.355 28.8153 18.3769C27.2938 14.0873 23.7588 10.7339 19.331 9.42465C20.54 8.66414 21.988 8.22154 23.5442 8.22154C27.7785 8.22154 31.2112 11.4981 31.2112 15.54ZM15.1875 34.75L15.244 34.7499V34.75L15.4585 34.75L29.6213 34.75H29.625L29.6309 34.75C33.3351 34.7468 36.5 31.7505 36.5 27.8594C36.5 23.9662 33.3318 20.9688 29.625 20.9688C28.621 20.9688 27.6566 21.1886 26.7839 21.5866C26.6652 20.6851 26.4418 19.8161 26.1263 18.9919L26.1293 18.9908C24.4508 14.5499 20.1337 11.4531 15.1875 11.4531C8.82283 11.4531 3.5 16.5807 3.5 23.1016C3.5 29.6224 8.82283 34.75 15.1875 34.75Z" fill="white"/>
</svg>
