<svg width="37" height="36" viewBox="0 0 37 36" fill="none" xmlns="http://www.w3.org/2000/svg">
<path fill-rule="evenodd" clip-rule="evenodd" d="M17.2188 4.25V0.5H19.7812V4.25H17.2188ZM24.4374 5.46726L26.3592 2.21967L28.5784 3.46967L26.6565 6.71726L24.4374 5.46726ZM18.5 26.75C23.4533 26.75 27.4688 22.8325 27.4688 18C27.4688 13.1675 23.4533 9.25 18.5 9.25C13.5467 9.25 9.53125 13.1675 9.53125 18C9.53125 22.8325 13.5467 26.75 18.5 26.75ZM18.5 29.25C24.8685 29.25 30.0312 24.2132 30.0312 18C30.0312 11.7868 24.8685 6.75 18.5 6.75C12.1315 6.75 6.96875 11.7868 6.96875 18C6.96875 24.2132 12.1315 29.25 18.5 29.25ZM32.5938 16.75H36.4375V19.25H32.5938V16.75ZM33.3937 8.16747L30.0649 10.0425L31.3461 12.2075L34.6749 10.3325L33.3937 8.16747ZM8.42165 3.46967L10.3435 6.71726L12.5627 5.46726L10.6408 2.21967L8.42165 3.46967ZM5.65386 12.2075L2.32508 10.3325L3.60633 8.16747L6.93511 10.0425L5.65386 12.2075ZM17.2188 31.75V35.5H19.7812V31.75H17.2188ZM4.40625 16.75H0.5625V19.25H4.40625V16.75ZM2.32501 25.6675L5.6538 23.7925L6.93505 25.9575L3.60626 27.8325L2.32501 25.6675ZM10.3436 29.283L8.42173 32.5306L10.6409 33.7806L12.5628 30.533L10.3436 29.283ZM26.3592 33.7806L24.4373 30.533L26.6565 29.283L28.5783 32.5306L26.3592 33.7806ZM30.065 25.9575L33.3937 27.8325L34.675 25.6675L31.3462 23.7925L30.065 25.9575Z" fill="white"/>
</svg>
