<svg width="32" height="30" viewBox="0 0 32 30" fill="none" xmlns="http://www.w3.org/2000/svg">
<path d="M24.8007 21.1226C24.4556 20.8904 23.9869 20.9047 23.6587 21.1577C19.6885 24.2169 13.8059 24.0036 10.1009 20.5304C6.40105 17.0619 6.16349 11.5479 9.43174 7.82004C9.70149 7.51236 9.7168 7.07303 9.46911 6.74947C9.22136 6.42586 8.77261 6.29894 8.3753 6.4401C6.65343 7.05176 5.11574 7.98504 3.80505 9.21387C-1.26345 13.9652 -1.27332 21.6724 3.80499 26.4331C8.87274 31.1842 17.0941 31.1937 22.1721 26.4331C23.4827 25.2043 24.4781 23.7627 25.1307 22.1481C25.2813 21.7757 25.1459 21.3549 24.8007 21.1226ZM20.8463 25.1901C16.5346 29.2325 9.49768 29.2842 5.13093 25.19C0.832552 21.1607 0.750865 14.5628 5.13093 10.4569C5.45061 10.1572 5.78605 9.87797 6.1363 9.61992C5.18774 11.8236 4.01961 17.3152 8.77518 21.7733C13.5248 26.226 19.3772 25.1408 21.7394 24.2471C21.4641 24.5756 21.1661 24.8903 20.8463 25.1901Z" fill="white"/>
<path d="M10.6837 13.0098C10.8872 13.0734 11.9615 13.3169 12.8771 14.162C13.7787 15.0204 14.0384 16.0276 14.1062 16.2184C14.2335 16.5777 14.592 16.8202 14.9959 16.8202C15.3997 16.8202 15.7582 16.5777 15.8856 16.2184C15.9534 16.0276 16.2131 15.0204 17.1146 14.162C18.0302 13.3168 19.1045 13.0734 19.3081 13.0098C19.6913 12.8904 19.95 12.5544 19.95 12.1757C19.95 11.7971 19.6913 11.461 19.3081 11.3416C19.1045 11.278 18.0302 11.0345 17.1146 10.1894C16.2131 9.33099 15.9534 8.32388 15.8856 8.13304C15.7582 7.77375 15.3997 7.53123 14.9959 7.53123C14.592 7.53123 14.2335 7.77375 14.1062 8.13304C14.0383 8.32388 13.7786 9.33099 12.8771 10.1894C11.9615 11.0346 10.8872 11.278 10.6837 11.3416C10.3004 11.461 10.0417 11.7971 10.0417 12.1757C10.0417 12.5544 10.3004 12.8904 10.6837 13.0098ZM14.9959 10.5203C15.4625 11.1744 16.064 11.7383 16.7616 12.1757C16.0637 12.6132 15.4625 13.177 14.9958 13.8312C14.5292 13.1771 13.9278 12.6132 13.2301 12.1758C13.928 11.7383 14.5292 11.1745 14.9959 10.5203Z" fill="white"/>
<path d="M18.7171 5.47857C18.9206 5.54221 19.9949 5.78566 20.9105 6.63082C21.8121 7.48922 22.0717 8.49633 22.1396 8.68717C22.2669 9.04646 22.6254 9.28898 23.0293 9.28898C23.4331 9.28898 23.7916 9.04646 23.919 8.68717C23.9868 8.49633 24.2465 7.48922 25.148 6.63082C26.0636 5.78561 27.1379 5.54221 27.3415 5.47857C27.7247 5.35922 27.9834 5.02312 27.9834 4.64449C27.9834 4.26586 27.7247 3.92977 27.3415 3.81041C27.1379 3.74678 26.0636 3.50332 25.148 2.65816C24.2465 1.79977 23.9868 0.792656 23.919 0.601816C23.7916 0.24252 23.4331 0 23.0293 0C22.6255 0 22.267 0.24252 22.1396 0.601816C22.0718 0.792656 21.8121 1.79977 20.9106 2.65816C19.995 3.50338 18.9207 3.74678 18.7171 3.81041C18.3339 3.92977 18.0752 4.26586 18.0752 4.64449C18.0752 5.02312 18.3338 5.35922 18.7171 5.47857ZM23.0293 2.98898C23.496 3.64313 24.0975 4.20703 24.7951 4.64443C24.0972 5.08195 23.496 5.64568 23.0293 6.29994C22.5627 5.6458 21.9613 5.08195 21.2636 4.64449C21.9614 4.20703 22.5626 3.64324 23.0293 2.98898Z" fill="white"/>
<path d="M31.3581 14.1659C31.1545 14.1023 30.0802 13.8588 29.1646 13.0137C28.2631 12.1553 28.0034 11.1482 27.9356 10.9573C27.8082 10.598 27.4497 10.3555 27.0459 10.3555C26.642 10.3555 26.2835 10.598 26.1562 10.9573C26.0883 11.1482 25.8287 12.1553 24.9271 13.0137C24.0115 13.8589 22.9372 14.1023 22.7337 14.1659C22.3504 14.2853 22.0917 14.6214 22.0917 15C22.0917 15.3786 22.3504 15.7147 22.7337 15.8341C22.9372 15.8977 24.0115 16.1412 24.9271 16.9863C25.8287 17.8447 26.0883 18.8518 26.1562 19.0427C26.2835 19.402 26.642 19.6445 27.0459 19.6445C27.4497 19.6445 27.8082 19.402 27.9356 19.0427C28.0034 18.8518 28.2631 17.8447 29.1646 16.9863C30.0802 16.1411 31.1545 15.8977 31.3581 15.8341C31.7413 15.7147 32 15.3786 32 15C32 14.6214 31.7413 14.2853 31.3581 14.1659ZM27.0458 16.6554C26.5792 16.0013 25.9778 15.4375 25.2801 15C25.978 14.5625 26.5792 13.9987 27.0459 13.3445C27.5125 13.9986 28.114 14.5625 28.8116 14.9999C28.1137 15.4375 27.5125 16.0012 27.0458 16.6554Z" fill="white"/>
</svg>
